mtllib materials.mtl
v -0.002799168 -0.02892113 -0.4800831
v 0.0328246 0.02323627 0.01991683
v -0.002800353 0.03232753 0.01991683
v 0.08498318 0.006702542 0.01991695
v 0.09969951 -0.02892244 0.01991689
v 0.08498316 -0.06454742 0.01991677
v -0.002800427 -0.1001723 0.01991647
v -0.09058397 -0.0645473 0.01991636
v -0.1053003 -0.02892232 0.01991624
v -0.09058394 0.006702542 0.01991653
v -0.0384253 0.02323627 0.01991671
v -0.1400497 -0.03742206 -0.3050832
v -0.1260503 -0.1014227 0.04491651
v -0.08005029 -0.03742266 0.02491683
v -0.1360503 0.08857715 0.05491698
v -0.2240503 -0.03742266 0.03891647
v 0.07194962 -0.03742266 0.02491713
v 0.1179496 -0.1014227 0.04491675
v 0.1319489 -0.03742206 -0.305083
v 0.2159497 -0.03742266 0.03891659
v 0.1279496 0.08857715 0.05491722
v -0.1869665 -0.03350556 -0.06133312
v -0.1802999 -0.001422405 0.01783365
v -0.4202999 -0.05600524 -0.03883398
v -0.1869668 -0.04767227 0.0145002
v -0.4202999 -0.05600524 -0.005083859
v -0.1953001 -0.03350568 0.03158355
v -0.44405 -0.05142236 -0.02508318
v -0.46405 -0.04142237 -0.01508319
v -0.44405 -0.05142236 -0.005083263
v -0.4103 -0.05600524 -0.005083799
v -0.46405 -0.04142237 -0.02508318
v -0.4202999 -0.05600524 -0.03883398
v 0.4421998 -0.05142236 -0.005083442
v 0.4621997 -0.04142237 -0.01508337
v 0.4421998 -0.05142236 -0.02508336
v 0.4084498 -0.05600524 -0.005083978
v 0.4621998 -0.04142237 -0.02508336
v 0.4084497 -0.05600524 -0.03883415
v 0.4109508 -0.05600476 -0.04008394
v 0.1709508 -0.001421928 0.01658368
v 0.1776174 -0.03350496 -0.06258309
v 0.1859511 -0.0335052 0.03033364
v 0.410951 -0.05600476 -0.006333768
v 0.1776177 -0.04767191 0.01325023
v 0.06594999 0.008577704 0.01491672
v 0.02594999 0.03857768 0.03491676
v 0.005949996 0.03857768 -0.03508335
v -0.01405001 0.03857768 -0.03508335
v -0.03405001 0.03857768 0.03491676
v -0.07405001 0.008577704 0.01491672
v 0.01594999 0.01857769 -0.05508333
v -0.02405001 0.01857769 -0.05508333
v -0.01405001 0.03857768 -0.03508335
v -0.03405001 0.03857768 0.03491676
v 0.02594999 0.03857768 0.03491676
v 0.01594999 0.07857764 0.03491676
v -0.02405 0.07857764 0.03491676
v 0.005949996 0.03857768 -0.03508335
v 0.04595 0.01857769 0.01491678
v -0.004050009 0.07857764 0.08491671
v 0.01594999 0.07857764 0.03491676
v -0.05405001 0.01857769 0.01491678
v -0.02405 0.07857764 0.03491676
v 0.01594999 0.02857769 0.004916787
v -0.03405 0.02857769 0.004916787
v -0.05405001 0.01857769 0.01491678
v 0.01594999 0.07857764 0.03491676
v -0.02405 0.07857764 0.03491676
v 0.04595 0.01857769 0.01491678
v -0.2240504 -0.03742266 0.03891647
v -0.1360503 0.08857715 0.05491698
v -0.13405 -0.02142239 0.06491673
v -0.1260503 -0.1014227 0.04491651
v -0.08005026 -0.03742266 0.02491683
v 0.1179496 -0.1014227 0.04491675
v 0.07194959 -0.03742266 0.02491713
v 0.13595 -0.02142227 0.06491673
v 0.2159497 -0.03742266 0.03891659
v 0.1279496 0.08857715 0.05491722
v -0.12405 -0.02142239 0.1049168
v -0.09405001 -0.03142238 0.02491689
v -0.1260503 -0.08142269 0.04491651
v -0.1940504 -0.03742266 0.03891647
v -0.1360503 0.0385772 0.05491698
v 0.12595 -0.0114224 0.1049168
v 0.12595 -0.08142233 0.04491687
v 0.08194962 -0.03742266 0.02491713
v 0.1279496 0.04857719 0.05491722
v 0.1859497 -0.03742266 0.03891659
vn 0.2455454 0.9621929 -0.1178655
vn 0.2999849 0.9463546 -0.120092
vn 0.9080908 0.3751233 -0.1861552
vn 0.9080905 -0.3751229 -0.1861571
vn 0.3728043 -0.9186298 -0.130906
vn -0.3728049 -0.9186292 -0.1309078
vn -0.9080895 -0.3751233 -0.1861615
vn -0.9080887 0.3751261 -0.1861596
vn -0.299984 0.9463547 -0.1200934
vn -0.245545 0.9621929 -0.1178667
vn -2.565285E-06 -2.455563E-06 1
vn -1.448575E-06 -6.243431E-06 1
vn -3.586123E-06 -3.034462E-06 1
vn -2.604245E-06 -2.322889E-06 1
vn 0.7821665 -0.606623 -0.1422118
vn -0.7926316 0.5781639 -0.1935502
vn -0.5364426 -0.8337085 -0.1309944
vn 0.8870276 0.4326341 -0.1612753
vn 0.09405935 0.234733 0.9674985
vn 0.09499242 -0.1904242 0.9770952
vn -0.7821666 -0.6066229 -0.1422116
vn 0.7926315 0.578164 -0.1935505
vn 0.5364426 -0.8337085 -0.1309945
vn -0.8870278 0.4326339 -0.1612751
vn -0.09405868 0.234733 0.9674986
vn -0.09499171 -0.1904242 0.9770953
vn -0.1240926 0.9232165 -0.3636928
vn -0.0252482 -0.7755319 0.6308033
vn -0.2217652 0.9751001 -2.305591E-06
vn 0.03568957 -0.9993629 1.909549E-06
vn 0.8985621 0.4313825 0.0805926
vn 0.07685255 -0.9800867 -0.1830948
vn -0.1874348 0.4596682 0.868086
vn 0.9158626 -0.392999 0.08214253
vn -0.4472134 -0.8944273 -8.452018E-07
vn -0.1345543 -0.9909062 -3.592814E-07
vn 0.2618434 0.9651104 2.440578E-07
vn -0.4040637 -0.8081285 -0.4285566
vn 0.1091124 0.8034752 0.5852539
vn -0.16233 -0.9855636 0.04809681
vn 0.2905845 0.9529679 -0.08609744
vn -0.4472131 -0.8944274 -3.245783E-07
vn 0.4472132 -0.8944274 -4.115661E-07
vn 0.1345541 -0.9909062 -5.533103E-09
vn -0.2618433 0.9651104 -2.430797E-07
vn 0.3492916 -0.6985845 -0.6244798
vn -0.1091125 0.8034754 0.5852535
vn 0.134554 -0.9909063 -2.426821E-07
vn -0.261843 0.9651105 7.104729E-07
vn 0.4472129 -0.8944275 2.548406E-07
vn 0.1240924 0.9232166 -0.3636927
vn 0.0252484 -0.7755315 0.6308039
vn 0.2217651 0.9751002 -2.233129E-06
vn -0.03568934 -0.9993629 1.850386E-06
vn -0.8985624 0.4313821 0.08059262
vn -0.07685235 -0.9800867 -0.183095
vn 0.1874348 0.4596693 0.8680855
vn -0.9158627 -0.392999 0.08214252
vn 0.5420367 0.8259615 -0.1548673
vn -0.5420367 0.8259615 -0.1548674
vn -3.416519E-10 -0.9899495 -0.1414211
vn 0 1 2.108786E-08
vn 2.260935E-08 0.7071068 -0.7071068
vn 5.092829E-09 -0.5547013 0.8320495
vn 0 1 1.862634E-09
vn 1.188327E-08 -0.5547013 0.8320496
vn -0.6394886 0.6794568 -0.3597121
vn 0.6394887 0.6794567 -0.3597121
vn 9.761482E-11 -0.9899495 -0.1414211
vn 0 -1 9.668017E-09
vn -2.29143E-10 0.8682437 -0.4961379
vn -1.210766E-08 0 1
vn 0.9348928 0.2337236 -0.2671117
vn 0 -1 -2.900405E-08
vn 4.582858E-10 0.8682437 -0.496138
vn -0.9348928 0.2337235 -0.2671119
vn 0.8789379 0.3222776 0.3515754
vn -0.8789379 0.3222778 0.3515753
vn 8.562929E-09 -0.7592566 0.6507915
vn 5.587935E-07 1 1.685698E-07
vn 9.607576E-07 0.3162282 -0.9486832
vn -4.825276E-09 0.3162273 -0.9486835
vn -1.410093E-08 -0.7071068 -0.7071069
vn -9.791713E-09 0.5144958 -0.8574929
vn 2.3295E-09 -0.3162278 0.9486833
vn 0.4158999 0.4678879 -0.7798129
vn -3.003397E-09 -0.7071068 -0.7071068
vn 6.13559E-09 -0.3162278 0.9486833
vn -0.574366 0.502571 -0.6461627
vn -9.791737E-09 0.5144958 -0.8574929
vn -0.289952 0.08141407 0.953572
vn 0.5600428 -0.1477931 0.8151743
vn -0.09499291 0.1904241 -0.9770952
vn -0.2256619 -0.2574595 0.9395698
vn -0.09405993 -0.2347328 -0.9674985
vn 0.6089087 0.08278989 0.7889081
vn -0.509459 -0.09906209 0.8547738
vn 0.3269146 0.1091128 0.9387339
vn 0.09499171 0.1904242 -0.9770953
vn 0.2438266 -0.2864946 0.9265363
vn 0.09405871 -0.2347328 -0.9674985
vn -0.5363665 0.03763552 0.8431457
vn 0.8434803 -0.3936294 0.3655091
vn -0.114046 -0.3051776 -0.9454418
vn 0.871737 0.4046231 0.2763237
vn -0.6780627 0.3857524 0.6256405
vn -0.1500588 0.3120303 -0.9381469
vn -0.4579172 -0.6209348 0.6362011
vn -0.7056494 -0.4611257 0.5379796
vn 0.749673 0.4087558 0.5204892
vn 0.4840508 -0.5694684 0.66438
vn -0.8672138 0.3355106 0.3679307
vn 0.1286526 0.2645857 -0.9557421
vn 0.1271676 -0.302242 -0.9447106
vt -0.05366131 -0.05498061
vt -0.1023055 -0.06815782
vt -0.1011928 -0.07166208
vt -0.05041845 -0.06436639
vt -0.1005673 -0.07301739
vt -0.09887418 -0.07822048
vt 0.1649525 0.02275022
vt 0.1864206 -0.02355508
vt 0.1897829 -0.02167047
vt 0.0747967 0.1457629
vt 0.1241341 0.1332903
vt 0.1250832 0.1370261
vt 0.04806882 0.05758565
vt 0.09515724 0.03932521
vt 0.09810911 0.04832729
vt -0.008061709 -0.06383756
vt 0.03103137 -0.09641792
vt 0.03607063 -0.08839565
vt -0.1583467 -0.01207843
vt -0.1694648 -0.06189254
vt -0.1656496 -0.06244128
vt -0.1306979 0.1089264
vt -0.1747359 0.08342333
vt -0.1728081 0.08008558
vt -0.08110171 0.03534028
vt -0.128788 0.01903358
vt -0.1272057 0.01379572
vt -0.07836128 0.02670272
vt -0.1270357 0.01372911
vt -0.1259824 0.01020655
vt 0.1526092 0.08713572
vt 0.142425 0.08787513
vt 0.1431644 0.07843033
vt 0.1502766 0.07217193
vt 0.1541211 0.07244886
vt 0.1566494 0.07535832
vt 0.1557956 0.08076294
vt 0.1557961 0.08076282
vt 0.155016 0.08435578
vt 0.1526097 0.0871356
vt 0.1526092 0.08713584
vt 0.1487978 0.09106164
vt 0.1449533 0.09078471
vt 0.1526092 0.08713573
vt 0.1449532 0.09078459
vt 0.142425 0.08787513
vt 0.08296052 0.1108236
vt 0.1158469 0.09717057
vt 0.1160435 0.1052996
vt -0.1322747 0.08542717
vt -0.1699978 0.07978004
vt -0.1621742 0.06645517
vt -0.02693965 -0.1054849
vt -0.004939353 -0.1332321
vt 0.003060094 -0.1246665
vt 0.1601264 -0.06591327
vt 0.1596382 -0.09945073
vt 0.1735839 -0.1016038
vt 0.1267052 0.04921625
vt 0.137067 0.04373967
vt 0.1302828 0.05651835
vt 0.1801647 0.04935375
vt 0.1885702 0.06231935
vt 0.1744631 0.06265083
vt -0.08331341 -0.1244608
vt -0.07527675 -0.1232231
vt -0.09303512 -0.09235953
vt -0.02673856 -0.1694244
vt -0.01891752 -0.1827507
vt 0.004401376 -0.1525655
vt 0.109983 0.0747215
vt 0.1128116 0.08609509
vt 0.07755921 0.0894395
vt -0.1776484 0.1014365
vt -0.16859 0.09061681
vt -0.1401438 0.1083879
vt 0.1086221 0.09410598
vt 0.1010307 0.1064222
vt 0.1005134 0.09471358
vt 0.161343 0.0930521
vt 0.1708945 0.103439
vt 0.1557262 0.1063852
vt -0.1453664 -0.01698899
vt -0.1539188 -0.01750595
vt -0.1433679 -0.04045332
vt 0.1826479 -0.006902391
vt 0.1815153 -0.03030518
vt 0.184898 -0.00764875
vt -0.08874441 -0.02664063
vt -0.1018167 -0.005030004
vt -0.09195049 -0.02769501
vt 0.07758179 -0.05863457
vt 0.08076622 -0.05975264
vt 0.09034873 -0.03837159
vt 0.1616788 -0.07861222
vt 0.1607088 -0.08626551
vt 0.1624142 -0.08791216
vt 0.06078362 -0.02413124
vt 0.05369675 -0.02108326
vt 0.04686188 -0.04361887
vt 0.07977022 0.07391909
vt 0.07764039 0.07077301
vt 0.08961681 0.05124554
vt 0.1611403 0.08938543
vt 0.1614477 0.09317219
vt 0.1528998 0.0937584
vt 0.0316928 -0.1404946
vt 0.03152467 -0.1429383
vt 0.03345818 -0.1414345
vt 0.06594117 -0.0901053
vt 0.06780656 -0.0908266
vt 0.06903488 -0.08764983
vt -0.05783353 -0.1088324
vt -0.05472234 -0.1135587
vt -0.05380305 -0.1131651
vt -0.05930413 -0.09262137
vt -0.06156535 -0.09686931
vt -0.05994434 -0.09532908
vt 0.0465124 -0.03666741
vt 0.04848921 -0.03944102
vt 0.05072184 -0.04044864
vt 0.07672244 -0.09278682
vt 0.07320888 -0.09257334
vt 0.07368726 -0.09531427
vt -0.0709093 -0.1182932
vt -0.07116003 -0.1134874
vt -0.07467198 -0.113726
vt 0.03169297 -0.1404946
vt 0.03064215 -0.1424684
vt 0.03152484 -0.1429383
vt 0.1280878 0.08549031
vt 0.1278156 0.08792463
vt 0.1261827 0.08609889
vt 0.1131404 0.03502229
vt 0.1142296 0.0382494
vt 0.1123347 0.03888896
vt -0.11882 0.06124121
vt -0.1197708 0.06093138
vt -0.1189961 0.05532631
vt 0.02305491 0.1183512
vt 0.02359621 0.1205207
vt 0.02056634 0.1156496
vt -0.01682004 0.07489082
vt -0.01702944 0.0724503
vt -0.01557239 0.06937172
vt 0.1123346 0.03888895
vt 0.1099426 0.03610154
vt 0.1131404 0.03502227
vt -0.118996 0.05532629
vt -0.115787 0.05637192
vt -0.1188199 0.06124119
vt 0.1278157 0.08792457
vt 0.1268632 0.08822887
vt 0.1261827 0.08609883
vt -0.1506921 0.007959911
vt -0.1539967 -0.01707976
vt -0.1456729 -0.0150483
vt 0.1832183 0.03368861
vt 0.1781054 0.0560183
vt 0.1810322 0.03277164
vt -0.09210667 -0.02814945
vt -0.08482438 -0.05177177
vt -0.0889875 -0.02686045
vt 0.09814005 -0.01640404
vt 0.1042833 0.006206464
vt 0.1011117 0.007360491
vt -0.1428508 0.1244933
vt -0.1407006 0.1234952
vt -0.1339099 0.127156
vt 0.06860837 0.005240648
vt 0.05645566 -0.01493065
vt 0.06346616 -0.0181504
vt 0.07970291 0.06749852
vt 0.09187083 0.04808979
vt 0.09563576 0.04859905
vt -0.1655286 -0.05937031
vt -0.170548 -0.06631415
vt -0.1674413 -0.06850109
vt -0.08450394 -0.1205169
vt -0.08471074 -0.125898
vt -0.07747891 -0.125061
vt -0.1406751 0.05959253
vt -0.1468591 0.05575088
vt -0.1433508 0.05166532
vt 0.06327184 -0.01815374
vt 0.06170958 -0.02183604
vt 0.06626619 -0.02920064
vt -0.08993634 -0.02468709
vt -0.09720121 -0.02515796
vt -0.08926366 -0.02657057
vt -0.186334 0.02686328
vt -0.1892486 0.02615261
vt -0.1894496 0.02416274
vt -0.186736 0.02288353
vt 0.1918031 0.05510227
vt 0.194784 0.0414233
vt 0.1961776 0.05196169
vt -0.09720122 -0.02515796
vt -0.09518321 -0.03080842
vt -0.08926367 -0.02657057
vt 0.194784 0.0414233
vt 0.1974552 0.04609928
vt 0.1961776 0.0519617
vt -0.1724091 0.05625774
vt -0.1671622 0.06314762
vt -0.1699504 0.06425492
vt -0.1472413 -0.1000684
vt -0.1448724 -0.09822767
vt -0.151832 -0.09307371
vt 0.06626619 -0.02920064
vt 0.07173413 -0.01631259
vt 0.06327184 -0.01815374
vt 0.08926367 -0.02657057
vt 0.09518321 -0.03080842
vt 0.09720122 -0.02515796
vt -0.1767818 -0.0029483
vt -0.1765343 -0.006940628
vt -0.1685493 -0.005443499
vt 0.1542887 0.08720665
vt 0.156972 0.08184009
vt 0.1601025 0.08452337
vt 0.1583136 0.08810108
vt 0.1444905 0.1463393
vt 0.1366202 0.1443246
vt 0.143616 0.14231
vt 0.09720121 -0.02515796
vt 0.08993634 -0.02468709
vt 0.08926366 -0.02657057
vt -0.1685493 -0.005443492
vt -0.1686731 -0.003447327
vt -0.1767818 -0.002948292
vt -0.1906728 0.06958003
vt -0.1852575 0.07444569
vt -0.193218 0.0728238
vt 0.1695648 -0.03864235
vt 0.1780845 -0.0447592
vt 0.1764972 -0.03961328
vt -0.08373484 0.1585028
vt -0.08639345 0.1649783
vt -0.09177221 0.1652408
vt 0.1874237 0.02118065
vt 0.1879652 0.01119532
vt 0.1969004 0.01668725
vt -0.09686481 -0.02609981
vt -0.1009008 -0.02966497
vt -0.09551947 -0.02986678
vt -0.1815424 0.07730635
vt -0.1885101 0.07663459
vt -0.1898696 0.07287273
vt -0.1898696 0.07287273
vt -0.1849412 0.06790169
vt -0.1815423 0.07730635
vt -0.04362537 0.03579565
vt -0.04621697 0.03151972
vt -0.0460442 0.02907633
vt -0.1931524 0.05555855
vt -0.1988159 0.05694609
vt -0.1943422 0.05070218
vt 0.1849413 0.06790166
vt 0.1898696 0.07287268
vt 0.1885101 0.07663455
vt -0.1873409 0.07246874
vt -0.1858931 0.07545266
vt -0.192822 0.07445802
vt -0.04604419 0.02907633
vt -0.04086097 0.03762819
vt -0.04362535 0.03579565
vt 0.1885101 0.07663455
vt 0.1815424 0.07730632
vt 0.1849413 0.06790166
vt -0.1986958 0.05213929
vt -0.1933486 0.0476218
vt -0.1931558 0.05006368
vt -0.1988159 0.05694608
vt -0.1997677 0.05306098
vt -0.1943423 0.05070217
vt 0.1274793 0.09872629
vt 0.1332901 0.1130439
vt 0.1237529 0.107469
vt 0.1822094 0.02466585
vt 0.1902111 0.0268136
vt 0.1856737 0.03202238
vt -0.1801647 0.0493537
vt -0.1744631 0.06265079
vt -0.1885702 0.06231931
vt 0.1749128 0.07406956
vt 0.1731749 0.08341303
vt 0.1653145 0.08079503
vt -0.1370671 0.0437396
vt -0.1267053 0.04921618
vt -0.1302829 0.05651828
vt 0.1873986 0.01236366
vt 0.1732915 0.01269699
vt 0.1775871 0.007286965
vt 0.109323 0.1464217
vt 0.1174084 0.1455582
vt 0.1148206 0.1528262
vt 0.1449739 0.06071942
vt 0.1500019 0.05378843
vt 0.1602022 0.05810045
vt -0.1557262 0.1063852
vt -0.1708945 0.103439
vt -0.161343 0.0930521
vt 0.1736943 0.06555797
vt 0.1808855 0.06997705
vt 0.1760446 0.07703999
vt -0.1086221 0.09410599
vt -0.1005135 0.09471358
vt -0.1010307 0.1064222
vt 0.08468409 0.1620608
vt 0.08820932 0.1551984
vt 0.09398372 0.1680738
vt 0.1911667 0.05545218
vt 0.1842261 0.06053428
vt 0.1827384 0.05444927
vt -0.1205775 0.04313687
vt -0.1236211 0.04861199
vt -0.1277849 0.03939333
vt 0.1616418 -0.0764896
vt 0.1673229 -0.07099733
vt 0.1590599 -0.0682839
vt -0.002084068 0.1420523
vt -0.003001854 0.151702
vt -0.009912163 0.1478697
vt -0.1851971 0.05348974
vt -0.19375 0.05191238
vt -0.1883342 0.04387314
vt 0.1901284 0.008085037
vt 0.1941499 0.001029022
vt 0.1984439 0.009785892
vt 0.1819719 0.08392975
vt 0.1737649 0.07972916
vt 0.1784094 0.07513041
vt 0.1399908 -0.04613813
vt 0.1454198 -0.04051987
vt 0.1351869 -0.03818556
vt 0.1946934 0.05636048
vt 0.1876132 0.06237637
vt 0.1855467 0.05520357
vt -0.09415738 0.1613448
vt -0.08530531 0.1579154
vt -0.08917049 0.1673589
vt -0.1634353 0.1019517
vt -0.1737276 0.09989543
vt -0.1671149 0.09212419
vt -0.09517697 0.09612573
vt -0.08877429 0.09743933
vt -0.08938839 0.1048786
o group1463920572
g mesh1463920572
usemtl mat21
f 3/3/1 2/2/1 1/1/1
f 2/6/2 4/5/2 1/4/2
f 4/9/3 5/8/3 1/7/3
f 5/12/4 6/11/4 1/10/4
f 6/15/5 7/14/5 1/13/5
f 7/18/6 8/17/6 1/16/6
f 8/21/7 9/20/7 1/19/7
f 9/24/8 10/23/8 1/22/8
f 10/27/9 11/26/9 1/25/9
f 11/30/10 3/29/10 1/28/10
f 11/37/11 10/36/11 9/35/11 8/34/11 7/33/11 6/32/11 2/31/11
f 2/40/12 3/39/12 11/38/12
f 5/43/13 4/42/13 2/41/13
f 6/46/14 5/45/14 2/44/14
o group880859104
g mesh880859104
usemtl mat5
f 14/49/15 13/48/15 12/47/15
f 16/52/16 15/51/16 12/50/16
f 13/55/17 16/54/17 12/53/17
f 15/58/18 14/57/18 12/56/18
f 14/61/19 16/60/19 13/59/19
f 14/64/20 15/63/20 16/62/20
o group1121847136
g mesh1121847136
usemtl mat5
f 19/67/21 18/66/21 17/65/21
f 19/70/22 21/69/22 20/68/22
f 19/73/23 20/72/23 18/71/23
f 19/76/24 17/75/24 21/74/24
f 18/79/25 20/78/25 17/77/25
f 20/82/26 21/81/26 17/80/26
o group806964330
g mesh806964330
usemtl mat21
f 24/85/27 23/84/27 22/83/27
f 27/88/28 26/87/28 25/86/28
f 26/91/29 23/90/29 24/89/29
f 25/94/30 26/93/30 24/92/30
f 27/97/31 25/96/31 22/95/31
f 24/100/32 22/99/32 25/98/32
f 26/103/33 27/102/33 23/101/33
f 22/106/34 23/105/34 27/104/34
o group1131677522
g mesh1131677522
usemtl mat12
f 30/109/35 29/108/35 28/107/35
f 31/112/36 30/111/36 28/110/36
f 32/115/37 29/114/37 31/113/37
f 28/118/38 32/117/38 33/116/38
f 29/121/39 30/120/39 31/119/39
f 28/124/40 33/123/40 31/122/40
f 31/127/41 33/126/41 32/125/41
f 29/130/42 32/129/42 28/128/42
o group478504828
g mesh478504828
usemtl mat12
f 36/133/43 35/132/43 34/131/43
f 36/136/44 34/135/44 37/134/44
f 37/139/45 35/138/45 38/137/45
f 39/142/46 38/141/46 36/140/46
f 37/145/47 34/144/47 35/143/47
f 37/148/48 39/147/48 36/146/48
f 38/151/49 39/150/49 37/149/49
f 36/154/50 38/153/50 35/152/50
o group464688159
g mesh464688159
usemtl mat21
f 42/157/51 41/156/51 40/155/51
f 45/160/52 44/159/52 43/158/52
f 40/163/53 41/162/53 44/161/53
f 40/166/54 44/165/54 45/164/54
f 42/169/55 45/168/55 43/167/55
f 45/172/56 42/171/56 40/170/56
f 41/175/57 43/174/57 44/173/57
f 43/178/58 41/177/58 42/176/58
o group487296091
g mesh487296091
usemtl mat21
f 48/181/59 47/180/59 46/179/59
f 51/184/60 50/183/60 49/182/60
f 51/187/61 53/186/61 52/185/61
f 49/190/62 47/189/62 48/188/62
f 53/194/63 49/193/63 48/192/63 52/191/63
f 47/197/64 51/196/64 46/195/64
f 49/200/65 50/199/65 47/198/65
f 47/203/66 50/202/66 51/201/66
f 49/206/67 53/205/67 51/204/67
f 46/209/68 52/208/68 48/207/68
f 52/212/69 46/211/69 51/210/69
o group1125755829
g mesh1125755829
usemtl mat24
f 56/215/70 55/214/70 54/213/70
f 54/218/71 58/217/71 57/216/71
f 57/222/72 58/221/72 55/220/72 56/219/72
f 56/225/73 59/224/73 57/223/73
f 54/228/74 59/227/74 56/226/74
f 57/231/75 59/230/75 54/229/75
f 58/234/76 54/233/76 55/232/76
o group1385402744
g mesh1385402744
usemtl mat21
f 62/237/77 61/236/77 60/235/77
f 61/240/78 64/239/78 63/238/78
f 61/243/79 63/242/79 60/241/79
f 64/246/80 61/245/80 62/244/80
f 64/249/81 62/248/81 60/247/81
f 60/252/82 63/251/82 64/250/82
o group1597662914
g mesh1597662914
usemtl mat25
f 67/255/83 66/254/83 65/253/83
f 66/258/84 68/257/84 65/256/84
f 68/261/85 69/260/85 67/259/85
f 68/264/86 70/263/86 65/262/86
f 65/267/87 70/266/87 67/265/87
f 67/270/88 70/269/88 68/268/88
f 66/273/89 67/272/89 69/271/89
f 66/276/90 69/275/90 68/274/90
o group956010490
g mesh956010490
usemtl mat23
f 73/279/91 72/278/91 71/277/91
f 75/282/92 73/281/92 74/280/92
f 72/285/93 75/284/93 71/283/93
f 74/288/94 73/287/94 71/286/94
f 75/291/95 74/290/95 71/289/95
f 73/294/96 75/293/96 72/292/96
o group1780649951
g mesh1780649951
usemtl mat23
f 78/297/97 77/296/97 76/295/97
f 80/300/98 78/299/98 79/298/98
f 77/303/99 80/302/99 79/301/99
f 79/306/100 78/305/100 76/304/100
f 79/309/101 76/308/101 77/307/101
f 80/312/102 77/311/102 78/310/102
o group335070153
g mesh335070153
usemtl mat4
f 83/315/103 82/314/103 81/313/103
f 84/318/104 82/317/104 83/316/104
f 82/321/105 85/320/105 81/319/105
f 81/324/106 85/323/106 84/322/106
f 84/327/107 85/326/107 82/325/107
f 81/330/108 84/329/108 83/328/108
o group1080070685
g mesh1080070685
usemtl mat4
f 88/333/109 87/332/109 86/331/109
f 90/336/110 89/335/110 86/334/110
f 87/339/111 90/338/111 86/337/111
f 89/342/112 88/341/112 86/340/112
f 88/345/113 89/344/113 90/343/113
f 90/348/114 87/347/114 88/346/114
